PathFileType	4	(X/Y/Z)	./resultDataOpenSim/trcMotMarkerGrf/sub06/qtm-15-03.trc
DataRate	CameraRate	NumFrames	NumMarkers	Units	OrigDataRate	OrigDataStartFrame	OrigNumFrames
250.000000	250.000000	14	24	m	250.000000	66	521
Frame#	Time	L.Toe.Tip			R.Toe.Tip			L.Ankle.Lat			R.Ankle.Lat			L.Ankle.Med			R.Ankle.Med			L.Heel			R.Heel			L.Knee.Lat			R.Knee.Lat			L.Knee.Med			R.Knee.Med			L.Thigh.Upper			R.Thigh.Upper			L.ASIS			R.ASIS			V.Sacral			L.Acromium			R.Acromium			C7			L.Elbow			R.Elbow			L.Wrist.Lat			R.Wrist.Lat
		X1	Y1	Z1	X2	Y2	Z2	X3	Y3	Z3	X4	Y4	Z4	X5	Y5	Z5	X6	Y6	Z6	X7	Y7	Z7	X8	Y8	Z8	X9	Y9	Z9	X10	Y10	Z10	X11	Y11	Z11	X12	Y12	Z12	X13	Y13	Z13	X14	Y14	Z14	X15	Y15	Z15	X16	Y16	Z16	X17	Y17	Z17	X18	Y18	Z18	X19	Y19	Z19	X20	Y20	Z20	X21	Y21	Z21	X22	Y22	Z22	X23	Y23	Z23	X24	Y24	Z24

66	0.26	-1.2526916	0.078706199	-0.10149604	-0.7276562	0.036177278	0.051940251	-1.2608626	0.20939285	-0.12355055	-0.86169873	0.060772383	0.078519419	-1.2382033	0.2109158	-0.043260093	-0.84634273	0.081378645	-0.0081908966	-1.3094044	0.26063906	-0.070036389	-0.91909555	0.037598283	0.018158255	-0.9285553	0.38834557	-0.15655795	-0.80831284	0.44444933	0.10955043	-0.92472029	0.38180146	-0.033235647	-0.85164013	0.4336525	-0.010156438	-0.95862586	0.78065092	-0.16086303	-0.92751931	0.80199353	0.17992378	-0.87998969	0.83337595	-0.12556329	-0.84929721	0.8558939	0.11568304	-1.0512913	0.91798676	0.016450185	-0.92577305	1.3269615	-0.18244241	-0.92700238	1.3069279	0.18308044	-1.006732	1.356784	0.00045681472	-0.92477686	0.99966703	-0.22985718	-1.0432188	1.0115577	0.23303483	-0.73411608	0.8477428	-0.19579935	-0.95871255	0.78920001	0.26731623
67	0.264	-1.2373415	0.078706547	-0.10116205	-0.7277209	0.036185542	0.05199671	-1.2476929	0.20915383	-0.12261761	-0.86181591	0.060766736	0.07867394	-1.2247331	0.21081726	-0.042463085	-0.8463905	0.081523832	-0.0080183819	-1.2967854	0.25970577	-0.068974341	-0.91912874	0.037670036	0.018243506	-0.9168428	0.39033335	-0.15633093	-0.80671577	0.44431445	0.10998197	-0.9130944	0.38392917	-0.032773573	-0.84937727	0.43400264	-0.010116665	-0.95221067	0.78259613	-0.16052912	-0.9218822	0.80302572	0.18058384	-0.87392308	0.83532501	-0.12512096	-0.84368311	0.85709246	0.11663405	-1.0449698	0.91956476	0.01634567	-0.92037074	1.3285731	-0.18220683	-0.92109742	1.3087833	0.18323235	-1.0010073	1.3583649	0.00071884658	-0.92091399	1.0015839	-0.22957095	-1.0344989	1.0122698	0.23427663	-0.73245596	0.84688651	-0.1965101	-0.94685179	0.79104641	0.26738356
68	0.268	-1.2217584	0.078529215	-0.10083358	-0.72777422	0.036190168	0.052048996	-1.2342836	0.20872533	-0.12176073	-0.86191704	0.060759116	0.078823116	-1.211066	0.21053638	-0.041694772	-0.84643933	0.081685114	-0.0078464266	-1.2839932	0.25841672	-0.067778518	-0.91915331	0.037751454	0.018346368	-0.90522776	0.39239532	-0.15609076	-0.80523024	0.44420053	0.11040486	-0.90172098	0.38603778	-0.032051721	-0.84718996	0.43432459	-0.010022359	-0.94576323	0.78454681	-0.16044947	-0.91668585	0.80398586	0.18115926	-0.86786806	0.83729306	-0.1246534	-0.83810604	0.85829574	0.11757251	-1.038827	0.92111931	0.016274808	-0.91496403	1.3302014	-0.18195975	-0.91521318	1.3106584	0.18337522	-0.99529684	1.3599398	0.00097934949	-0.91708802	1.0035436	-0.22930124	-1.0258818	1.0130331	0.23543211	-0.73082706	0.84611467	-0.1972727	-0.93492669	0.79300511	0.26743233
69	0.272	-1.2059163	0.078194034	-0.10053353	-0.72782066	0.036191955	0.052094953	-1.2206892	0.20810143	-0.12095441	-0.86200668	0.060751127	0.07895875	-1.1972292	0.21008573	-0.040963742	-0.84650041	0.08185357	-0.0076805098	-1.2710944	0.25684896	-0.066540614	-0.91917459	0.037846289	0.018471105	-0.89367986	0.39452855	-0.1558504	-0.80381536	0.44410657	0.1108019	-0.89033498	0.38816065	-0.031255534	-0.84515562	0.4346243	-0.0098839382	-0.93931832	0.78649938	-0.16066957	-0.91208381	0.80482927	0.18155811	-0.86183026	0.83926881	-0.12416139	-0.83255704	0.85949614	0.11848248	-1.0329628	0.92259934	0.016280902	-0.90954784	1.3318404	-0.18170983	-0.90935394	1.3125472	0.18351016	-0.98960645	1.3614988	0.0012350739	-0.91329836	1.0055373	-0.22900729	-1.0174613	1.0138639	0.23662794	-0.72922839	0.84542414	-0.19808468	-0.92295015	0.79506116	0.26745934
70	0.276	-1.1897745	0.077733301	-0.10030468	-0.7278654	0.036192615	0.052130584	-1.2069925	0.20727785	-0.12015001	-0.86209102	0.060747339	0.079075928	-1.1833691	0.20946613	-0.040241017	-0.84656741	0.082022033	-0.0075225831	-1.2581831	0.2550746	-0.065418858	-0.91919799	0.037952942	0.018612891	-0.88211959	0.39673394	-0.15559565	-0.80242577	0.44403622	0.11115316	-0.8787686	0.39036228	-0.030570832	-0.84332609	0.4349153	-0.0097607421	-0.932963	0.78846886	-0.16103068	-0.90793081	0.80557237	0.18176209	-0.85583521	0.84124339	-0.12370535	-0.82702221	0.86069857	0.11935118	-1.0275408	0.92402872	0.016478308	-0.90411946	1.3334841	-0.18146504	-0.90352151	1.314437	0.18363779	-0.98393351	1.3630285	0.0014858445	-0.90953997	1.007563	-0.22865753	-1.0092786	1.0147814	0.23812798	-0.72769152	0.84480376	-0.19896433	-0.91094633	0.79720457	0.26746064
71	0.28	-1.1733173	0.077183315	-0.10017124	-0.72791182	0.036192096	0.052152145	-1.193217	0.20625098	-0.11934998	-0.8621738	0.060755915	0.079176509	-1.1695818	0.20868254	-0.03949824	-0.84662712	0.082189456	-0.0073697136	-1.2452706	0.25307258	-0.064471118	-0.91922839	0.038063197	0.018755843	-0.87051955	0.39900785	-0.15529789	-0.80103714	0.44399575	0.1114707	-0.86705042	0.39267269	-0.03003342	-0.84170058	0.43519126	-0.0096564369	-0.92671575	0.7904679	-0.1612992	-0.90398259	0.80625763	0.18182281	-0.84991842	0.84320514	-0.12333019	-0.82146416	0.86191734	0.12017659	-1.0226465	0.92553144	0.016993321	-0.89867388	1.3351251	-0.18122498	-0.89769807	1.316316	0.18375608	-0.97826707	1.3645243	0.0017374772	-0.90581108	1.0096215	-0.22826227	-1.0012786	1.0157735	0.24002774	-0.72626722	0.84423489	-0.19994729	-0.89893486	0.79943321	0.26742905
72	0.284	-1.1566209	0.076565087	-0.10005153	-0.72796048	0.036188944	0.05215785	-1.1793415	0.20502134	-0.11858424	-0.8622489	0.060785674	0.079269992	-1.1557525	0.20775218	-0.038770067	-0.84668129	0.08235786	-0.0072164528	-1.2323156	0.2507988	-0.063619272	-0.91926699	0.038162961	0.018883483	-0.8589319	0.40133792	-0.15494016	-0.79968213	0.44398404	0.11180192	-0.85526746	0.39509099	-0.029570072	-0.84020713	0.43543022	-0.0095231648	-0.92044546	0.79248219	-0.16137405	-0.89969952	0.80697026	0.1819267	-0.84408416	0.84514105	-0.12299214	-0.81579651	0.86317262	0.120973	-1.0180404	0.92722545	0.017758955	-0.89320636	1.3367556	-0.180982	-0.89185314	1.3181784	0.18386355	-0.97260123	1.3659892	0.0019965211	-0.90211338	1.0117054	-0.22785689	-0.99327654	1.0167705	0.24202587	-0.7249759	0.84370535	-0.20105327	-0.88691152	0.80174609	0.26735903
73	0.288	-1.1398293	0.075864138	-0.099769528	-0.72800994	0.036183128	0.052148006	-1.1653469	0.20359979	-0.11785894	-0.86229861	0.060841293	0.079366578	-1.1416557	0.20668567	-0.03811816	-0.84674	0.082529328	-0.0070591703	-1.2193215	0.24827708	-0.0627468	-0.91931029	0.038241361	0.018992492	-0.84741486	0.40370644	-0.15453142	-0.79848812	0.44398505	0.11219471	-0.84351772	0.39759662	-0.029102778	-0.83877417	0.43562443	-0.0093299749	-0.91402129	0.79448561	-0.16122486	-0.89457428	0.80779494	0.18226394	-0.83827317	0.84705588	-0.12262149	-0.80990553	0.86447708	0.12176628	-1.0132455	0.9290457	0.018475017	-0.88771627	1.338366	-0.18073251	-0.88595567	1.3200196	0.18396363	-0.9669398	1.3674229	0.0022608853	-0.89844439	1.0137967	-0.22746265	-0.98509862	1.0177016	0.24369422	-0.72377468	0.84322151	-0.20225755	-0.8748602	0.80413742	0.26725311
74	0.292	-1.1229604	0.075061366	-0.099279244	-0.72805737	0.036176928	0.052125645	-1.1512265	0.20200367	-0.11716709	-0.86230789	0.060915308	0.079466356	-1.1271716	0.2054785	-0.037538048	-0.84680043	0.082706634	-0.0068975305	-1.2063165	0.24554416	-0.06181319	-0.91935437	0.038307935	0.019096641	-0.83597926	0.40609691	-0.15409059	-0.79762944	0.44396281	0.11263372	-0.83192674	0.40016275	-0.028614915	-0.83729846	0.43581103	-0.009070858	-0.90747268	0.79646409	-0.16084711	-0.88883126	0.80871335	0.18279027	-0.83241464	0.84897107	-0.12221541	-0.80378097	0.86581719	0.12257389	-1.007982	0.93076868	0.018892	-0.8822048	1.3399449	-0.1804827	-0.87999478	1.3218343	0.18405982	-0.9612883	1.3688159	0.0025221217	-0.89479913	1.0158779	-0.22708592	-0.97674627	1.0185664	0.24492087	-0.72258912	0.84279945	-0.20350656	-0.86277427	0.80659906	0.26711694
75	0.296	-1.1058284	0.074181337	-0.098775352	-0.72809956	0.03617233	0.052097063	-1.1369838	0.2002434	-0.11650874	-0.86229903	0.060975941	0.079556078	-1.112426	0.20412465	-0.036944782	-0.8468449	0.082891762	-0.006732368	-1.19325	0.24254451	-0.060923607	-0.91939785	0.038388429	0.019211982	-0.82460622	0.40850019	-0.15362387	-0.79713015	0.44387663	0.11301999	-0.82055071	0.40279036	-0.02813254	-0.83566277	0.43605199	-0.0087568107	-0.90091274	0.79840276	-0.16039932	-0.88305771	0.80964094	0.18332878	-0.82648585	0.85090023	-0.12181085	-0.7976799	0.86714797	0.12337434	-1.0023368	0.93225268	0.019028094	-0.8766777	1.3414832	-0.1802378	-0.874012	1.3236157	0.18414959	-0.9556454	1.3701566	0.002776746	-0.89119125	1.0179388	-0.22677475	-0.96832583	1.0194048	0.24588354	-0.72137407	0.84244129	-0.204763	-0.85065936	0.80912822	0.26695345
76	0.3	-1.0882664	0.073273401	-0.098449008	-0.72813421	0.036169206	0.05207037	-1.1226264	0.19831665	-0.11588393	-0.86233632	0.060980665	0.079623611	-1.0977433	0.20261913	-0.036258673	-0.8468662	0.083081551	-0.0065647876	-1.1800065	0.23917854	-0.060222214	-0.91944118	0.038495006	0.019341409	-0.81328443	0.41091411	-0.15313023	-0.79670655	0.44373808	0.11328643	-0.8093152	0.40550513	-0.027652883	-0.83411057	0.43633587	-0.0084707452	-0.89440493	0.80027852	-0.16010509	-0.87746185	0.81052924	0.18380133	-0.82045181	0.85284704	-0.12140402	-0.79200701	0.86841625	0.12409844	-0.99651487	0.93353391	0.019040511	-0.87115319	1.3429781	-0.1799904	-0.86807681	1.3253554	0.1842309	-0.95000591	1.3714412	0.0030261726	-0.88766559	1.0199715	-0.22666516	-0.95990271	1.0202319	0.24675464	-0.72013406	0.84213071	-0.20602703	-0.83852641	0.8117292	0.26676815
77	0.304	-1.0703172	0.072359013	-0.098283696	-0.72816034	0.036166977	0.052053323	-1.1081564	0.19621321	-0.11528759	-0.86245021	0.060928534	0.079678925	-1.0833277	0.2009494	-0.035493834	-0.84688927	0.08326658	-0.006397168	-1.1665595	0.23545644	-0.059667308	-0.91948684	0.038614723	0.019485108	-0.80202568	0.41333783	-0.15261777	-0.79594794	0.44362587	0.11350479	-0.79813773	0.40831145	-0.027139484	-0.83315138	0.43658189	-0.0083209708	-0.88795404	0.8020787	-0.16000894	-0.87196498	0.81136539	0.18419715	-0.81425082	0.85480494	-0.1209535	-0.78688885	0.86960136	0.12466925	-0.99060813	0.93469108	0.019023859	-0.86565009	1.3444304	-0.17972732	-0.86221518	1.327046	0.18430628	-0.94437147	1.3726748	0.0032664176	-0.88425385	1.0219754	-0.22688276	-0.951492	1.0210373	0.24759917	-0.71889453	0.84185155	-0.20731534	-0.8263978	0.81440199	0.26656887
78	0.308	-1.052145	0.071423062	-0.098157071	-0.72817744	0.036166307	0.052051168	-1.0935628	0.19392718	-0.11470747	-0.86259495	0.060870525	0.079750111	-1.0690545	0.1990976	-0.03473065	-0.84693899	0.083439631	-0.0062318954	-1.1529929	0.23149795	-0.05907851	-0.91953927	0.038729891	0.019656608	-0.79084884	0.41577053	-0.15209473	-0.79470882	0.44359469	0.11378547	-0.78704289	0.41117714	-0.0265789	-0.83268995	0.43679497	-0.0082635565	-0.88154232	0.80381168	-0.16001163	-0.86647457	0.81214612	0.1844929	-0.8079237	0.85674049	-0.12045486	-0.78204478	0.87072211	0.12506745	-0.98461578	0.93574122	0.018997342	-0.86016126	1.3458364	-0.17944559	-0.85640325	1.3286817	0.18437812	-0.93874846	1.3738629	0.0034904866	-0.88090384	1.0239616	-0.22732204	-0.94311054	1.0218165	0.24842447	-0.71766318	0.84159842	-0.20862941	-0.81430309	0.81713262	0.26635716
79	0.312	-1.0338384	0.070443875	-0.09800986	-0.728186	0.036167594	0.05206446	-1.0788213	0.19147422	-0.11412739	-0.86272208	0.06084993	0.07985728	-1.0546829	0.19705801	-0.034018879	-0.84700047	0.083604241	-0.0060701312	-1.1393442	0.2273852	-0.058409936	-0.91959269	0.038842419	0.019864353	-0.77975761	0.41821253	-0.15155571	-0.79321601	0.44361263	0.11413575	-0.77610024	0.41406256	-0.02598709	-0.83214346	0.43703246	-0.0081764332	-0.87513613	0.80550056	-0.16004556	-0.86092891	0.81287718	0.18470231	-0.80161291	0.85860793	-0.11995588	-0.77712456	0.87180197	0.12536236	-0.97862457	0.93667989	0.018971753	-0.85466049	1.347187	-0.17915741	-0.85061301	1.3302574	0.18445048	-0.93313556	1.3750034	0.0037009375	-0.8775086	1.0259219	-0.22765277	-0.93479296	1.0225739	0.24922927	-0.7164206	0.84137208	-0.20994939	-0.80224106	0.81990474	0.26613012
